<?xml version="1.0" encoding="UTF-8"?>
<svg height="16px" viewBox="0 0 16 16" width="16px" xmlns="http://www.w3.org/2000/svg" xmlns:xlink="http://www.w3.org/1999/xlink">
    <filter id="a" height="100%" width="100%" x="0%" y="0%">
        <feColorMatrix in="SourceGraphic" type="matrix" values="0 0 0 0 1 0 0 0 0 1 0 0 0 0 1 0 0 0 1 0"/>
    </filter>
    <mask id="b">
        <g filter="url(#a)">
            <rect fill-opacity="0.3" height="16" width="16"/>
        </g>
    </mask>
    <clipPath id="c">
        <rect height="152" width="192"/>
    </clipPath>
    <g clip-path="url(#c)" mask="url(#b)" transform="matrix(1 0 0 1 -168 -16)">
        <path d="m 72 52 c -7.730469 0 -14 6.269531 -14 14 c 0.03125 0.503906 0.085938 1.003906 0.171875 1.5 c 0.761719 -7.078125 6.710937 -12.453125 13.828125 -12.5 c 7.015625 0.003906 12.945312 5.195312 13.871094 12.148438 c 0.058594 -0.382813 0.101562 -0.765626 0.128906 -1.148438 c 0 -7.730469 -6.269531 -14 -14 -14 z m 34 0 c -7.730469 0 -14 6.269531 -14 14 c 0.03125 0.503906 0.085938 1.003906 0.171875 1.5 c 0.761719 -7.078125 6.710937 -12.453125 13.828125 -12.5 c 7.015625 0.003906 12.945312 5.195312 13.871094 12.148438 c 0.058594 -0.382813 0.101562 -0.765626 0.128906 -1.148438 c 0 -7.730469 -6.269531 -14 -14 -14 z m -34 36 c -7.730469 0 -14 6.269531 -14 14 c 0.03125 0.503906 0.085938 1.003906 0.171875 1.5 c 0.761719 -7.078125 6.710937 -12.453125 13.828125 -12.5 c 7.015625 0.003906 12.945312 5.195312 13.871094 12.148438 c 0.058594 -0.382813 0.101562 -0.765626 0.128906 -1.148438 c 0 -7.730469 -6.269531 -14 -14 -14 z m 34 0 c -7.730469 0 -14 6.269531 -14 14 c 0.03125 0.503906 0.085938 1.003906 0.171875 1.5 c 0.761719 -7.078125 6.710937 -12.453125 13.828125 -12.5 c 7.015625 0.003906 12.945312 5.195312 13.871094 12.148438 c 0.058594 -0.382813 0.101562 -0.765626 0.128906 -1.148438 c 0 -7.730469 -6.269531 -14 -14 -14 z m 0 0"/>
    </g>
    <g fill="#222222">
        <path d="m 2 5 l -0.003906 8 l 2.003906 2 l -0.003906 0.996094 l 2.003906 0.003906 v -1 l 2 -2 v -8 h -2 v 3 l -2 2 v -5 z m 0 0"/>
        <path d="m 14.5 3 c 0 1.105469 -0.894531 2 -2 2 s -2 -0.894531 -2 -2 s 0.894531 -2 2 -2 s 2 0.894531 2 2 z m 0 0"/>
        <path d="m 14.5 13 c 0 1.105469 -0.894531 2 -2 2 s -2 -0.894531 -2 -2 s 0.894531 -2 2 -2 s 2 0.894531 2 2 z m 0 0"/>
        <path d="m 14.5 8 c 0 1.105469 -0.894531 2 -2 2 s -2 -0.894531 -2 -2 s 0.894531 -2 2 -2 s 2 0.894531 2 2 z m 0 0"/>
        <path d="m 1.5 4 h 7 c 0.277344 0 0.5 0.222656 0.5 0.5 v 1 c 0 0.277344 -0.222656 0.5 -0.5 0.5 h -7 c -0.277344 0 -0.5 -0.222656 -0.5 -0.5 v -1 c 0 -0.277344 0.222656 -0.5 0.5 -0.5 z m 0 0"/>
        <path d="m 3 2 h 4 v 3 h -4 z m 0 0"/>
        <path d="m 3 2 c 0 -0.714844 0.382812 -1.375 1 -1.730469 c 0.617188 -0.3593748 1.382812 -0.3593748 2 0 c 0.617188 0.355469 1 1.015625 1 1.730469"/>
    </g>
</svg>
