<?xml version="1.0" encoding="UTF-8" standalone="no"?>
<svg
   height="16px"
   viewBox="0 0 16 16"
   width="16px"
   version="1.1"
   id="svg1"
   sodipodi:docname="portal-missing.svg"
   inkscape:version="1.3.2 (091e20ef0f, 2023-11-25, custom)"
   xmlns:inkscape="http://www.inkscape.org/namespaces/inkscape"
   xmlns:sodipodi="http://sodipodi.sourceforge.net/DTD/sodipodi-0.dtd"
   xmlns="http://www.w3.org/2000/svg"
   xmlns:svg="http://www.w3.org/2000/svg">
  <defs
     id="defs1" />
  <sodipodi:namedview
     id="namedview1"
     pagecolor="#ffffff"
     bordercolor="#111111"
     borderopacity="1"
     inkscape:showpageshadow="0"
     inkscape:pageopacity="0"
     inkscape:pagecheckerboard="1"
     inkscape:deskcolor="#d1d1d1"
     showgrid="false"
     inkscape:zoom="25.09375"
     inkscape:cx="5.6587796"
     inkscape:cy="6.5155666"
     inkscape:window-width="1920"
     inkscape:window-height="1011"
     inkscape:window-x="0"
     inkscape:window-y="0"
     inkscape:window-maximized="1"
     inkscape:current-layer="svg1" />
  <path
     id="path1"
     d="M 12.957031 0.98046875 C 12.437501 0.99609373 11.941406 1.2148439 11.582031 1.5859375 L 9.9960938 3.171875 L 8.9101562 2.0859375 C 8.8125003 1.9921876 8.6835939 1.9375 8.546875 1.9375 C 8.4179691 1.941406 8.2929689 1.9921876 8.203125 2.0859375 L 6.0820312 4.2070312 C 5.8867194 4.4023441 5.8867194 4.7187507 6.0820312 4.9140625 L 6.7265625 5.5625 L 1.140625 11.144531 C 1.0468751 11.242188 0.99609375 11.367188 0.99609375 11.5 L 0.99609375 13.292969 L 0.140625 14.144531 C -0.054687305 14.339844 -0.054687305 14.660156 0.140625 14.855469 L 1.140625 15.855469 C 1.3359378 16.046875 1.6523444 16.046875 1.8476562 15.855469 L 2.703125 15 L 4.4960938 15 C 4.6289056 15 4.7539063 14.949219 4.8476562 14.855469 L 6.4609375 13.242188 C 6.0959101 12.572487 5.8807668 11.81077 5.8574219 11 L 3.703125 11 L 6.8691406 7.8339844 C 7.1456172 7.4696096 7.4696096 7.1456172 7.8339844 6.8691406 L 7.9335938 6.7695312 L 7.9492188 6.7851562 C 8.7680503 6.1996086 9.7701042 5.8535155 10.853516 5.8535156 C 11.760862 5.8535156 12.610167 6.0970231 13.34375 6.5195312 L 12.824219 6 L 14.410156 4.4140625 C 15.714843 3.1406268 14.777342 0.9257808 12.957031 0.98046875 z "
     style="fill:#2e3436;fill-opacity:1" />
  <path
     class="error"
     d="m 10.853512,6.8535155 c -2.2109381,0 -4.0000001,1.789062 -4.0000001,4.0000005 0,2.210938 1.789062,4 4.0000001,4 2.210938,0 4,-1.789062 4,-4 0,-2.2109385 -1.789062,-4.0000005 -4,-4.0000005 z m -2.0000001,3 h 4.0000001 c 0.554688,0 1,0.4453125 1,1.0000005 0,0.554688 -0.445312,1 -1,1 H 8.8535119 c -0.554688,0 -1,-0.445312 -1,-1 0,-0.554688 0.445312,-1.0000005 1,-1.0000005 z m 0,0"
     fill="#e01b24"
     id="path2-7" />
</svg>
